<svg id="Capa_1" data-name="Capa 1" xmlns="http://www.w3.org/2000/svg" viewBox="0 0 584.75 651.08"><defs><style>.cls-6{fill:#e7b83a}.cls-2,.cls-7{fill:#124c91}.cls-6,.cls-7{fill-rule:evenodd}</style></defs><path fill="#e7b83a" d="M0 445h584.75v206.08H0z"/><path class="cls-2" d="M-1.25-6.73h586V445h-586z"/><path d="M354.83 9.82h-130c-10.49-.49-21.16.76-29.36 14.46l-55.92 98a26.45 26.45 0 0 0 .7 26.43l55.91 98.14c9.59 11.94 16.34 13.19 28.71 13.07l131 .12c10.74 0 20.56-2.49 27.58-14.38L439 148.91c5-8 5.73-17.66.52-27.07l-57.1-99.73C377.61 15 367.9 8.65 354.83 9.82z" fill="#fff"/><path d="M494.53 293.05l1.61-12.26-50.14-.24-1.73 10.77c-6.59-6-9.29-9.1-21.12-10.29-9-.91-22.06-.82-31.16-.33-.67 4.73-9.92 67.82-12.26 73.62a6.72 6.72 0 0 1-.4.82l-4.19-74.41-29.1-.15c-2 6-10.41 24.28-10.92 27.7-1.24-15.05-2.46-21.27-15.26-25.37-8.16-2.61-29.43-3.25-38.54-2l-14.11 86.88 23.49-.06 4.73-28c6.07-1.27 10.74-.36 17.48-2.4 7-2.09 9-4.76 13.26-7.47l-14.63 37.81 24 .06 4.11-10.73 15.66-.42v11.14l44.94.15c3.79-1.18 5-24.58 6.37-29.62l.61-1.76a4 4 0 0 1 .33-.88c4.34 8.44 3.76 21.7 7.31 31.71l25.34.55-11.4-35.87c16.14-11.44 13.84-9.5 17.84-29.89h8.47l-9.92 65.52c20 .24 22.43 2.4 24.28-3.16l5.22-33.23c5.37-33.8 1.61-29.47 15.05-29.13.21 8.1-3.76 10.83 1.12 20.66 2.76 5.55 7 8.53 11.29 12.71 5.43 5.4 4.31 12.26-4 12.71-7.43.43-10.23-5.64-14-8.71l-4.25 27c12.87 3 22.09 5.58 33.65-1.61a35.61 35.61 0 0 0 16.08-24.7c2.37-17.11-6.65-20.39-13.66-27-7.44-7 .12-19.36 13-6.74l1.12 1.09a15.2 15.2 0 0 0 2 1.64c.94-6.07 1.94-12.44 3.07-18.84.79-4.61 3.55-8.44-9.92-10.5-17-2.61-23.27 5.77-30.77 13.26zm-148.66 44.7l9.38.18 1.4-32.41zm63.54-17.05c7-.09 10.8-3.16 12.35-9.19 2.22-8.68-1.27-11.68-8.92-12zm-110.79-1.18c6.25-.58 10.56-2.55 11.77-8.83 1.37-7-1.55-11.23-8.22-10.89zm-86.9-24.92l1.58-14-73.44-.12-9 56.5c-1.33 7.56-3.16 10.77-11 9.62-3.88-9.53 6.46-52 7.86-66h-23.55l-9 56-3.43-55.62-29.13-.52-34.42 87.06 24.73.15 3.46-11.14 15.6-.18-.12 10.56c5.4 1.76 18.45.91 24.64.61l-.36-9.62c4.28 4.1 6.46 11.38 24.28 11.23 40.39-.36 33.11-44.49 40.18-67.12l11.62-.15-9.86 65.82h23.91l10.29-65.79 10 .06c-.76 4.89-17.3 38.57.24 59.26 11.71 13.84 37.26 10.74 50.34-10.65 18.06-29.5 14.47-77-22.76-70.77-9.16 1.55-20.15 9.5-22.67 14.84zm22.46 7.65c-6.74 3.73-8.77 13.69-10.17 22.58-1.06 6.8-2.46 27.83 8.89 21.36 10.68-6 16.39-52.31 1.27-43.94zm-171.7 35.44h9.47l1.37-33.23z" fill-rule="evenodd" fill="#e0a632"/><path d="M25.2 399.55c2.32 3.85 2.61.16 4.93 3.64-8.2 1.4-9 .42-11.15 3 3.06 2.29 4.46 1 7.65 2.93-4.14 3.43-10.55.26-10.23 5.59 6.14 1.58 38.78-4.4 47.51-5.43 44.11-5.33 111.76-10 155.1-8.59-4.46 1.29-40.07 1.63-48.69 1.87-27.13.74-67.39 4.17-94.36 7.3l-33.4 4.61c-4.56.76-7.17.61-8 3.27 7.09 2.16 20-3.8 25.42-1.11-3.56.61-7.83 1.16-9.54 3.48 3.77 1.5 19.88-2.11 25.63-2.82 125-15.16 266.43-13.13 391.69-.71 11.47 1.13 48.67 6.54 57 5.62l.16-5c4.3-.34 6 .16 9.17-1.53-.74-2.77.13-.82-1.71-2.5l-2.53-1.87c2.29-.76 1.48-.24 3.11-.63l.79-.16 1.5-.45a4.68 4.68 0 0 0 .74-.24c-10.41-5.83-98.23-12.42-118.8-14.1-69-5.67-199.26-10.31-267.3-6.62-23.75 1.29-108.8 5.38-124.7 10.44z" fill="#c23234" fill-rule="evenodd"/><path class="cls-6" d="M171.85 65.62c9.49.39 19.74 0 29.3 0h205.33c1.73-.31-1.27.39.46-.15l.46-.19-23.83-41a26.87 26.87 0 0 0-4.63-6.17c-7.33-7.1-13.53-8.33-24.18-8.33H224.63c-7.87 0-12.15.23-18.2 3.51-9.41 5.17-13 14.85-18.78 24.6-1.16 1.93-15.19 25.91-15.81 27.69zm235.63 138.66H171.65c5.44 9 10.41 18.32 15.81 27.46 2.7 4.51 5.28 9.14 7.87 13.69a27.52 27.52 0 0 0 10.87 11c5.71 3.24 10.41 3.62 17.89 3.62H354.5c7.48 0 12.57-.39 18.2-3.62a28 28 0 0 0 10.76-10.76l16-27.61c2.58-4.47 5.28-9.49 8-13.73z"/><path class="cls-7" d="M191.74 189.32l.12 1h15.81l.15-75.08 8.06 75 24.06.12V79.54h-16.08c0 5.59.35 57.18-.19 61.31l-7.9-61.31c-6.9-.19-16.85 0-24.06 0zm55.1.93h15.77l2.54-22.67c.23-2.27-.35-3.08 1.74-3.08 2.89 0 7.33-.19 10.06.08l3 25.68H296l-9.83-110.6-29.54-.12zM267 148.83h8.44c.31-2.39-3.78-52.94-4.16-53.83-.27.66-4.43 50.67-4.28 53.79zm76.45 40.75l15.8.46 2.48-18.1c.81-6 .2-7.59 2.47-7.53a96.82 96.82 0 0 1 10.06.38l2.29 25.71 16.11.42-7-110.81c-1.38-.38-27.51-1.11-29.45-.81zm21.21-40.83l8.52.22c.41-2.5-2.53-51.83-2.75-55.12zm-61.21 41.46l16.08.08v-41.38c5.82-.35 13 1 17.7-1.47 4.09-2.16 7.06-6.13 7.06-12.3V93.42c0-8.21-5.36-13.73-13.53-13.88l-27.3.08zm16.08-55.72c5 .5 9.52.39 9.52-5.4V98.4c0-5.4-4.2-6.21-9.52-5.4z"/><path class="cls-6" d="M415.16 190.4c.69-.73 6.48-11.22 7.52-13.07 2.55-4.47 5-8.64 7.48-13.23 2.43-4.4 5-8.87 7.48-13.23 6.67-11.49 7-20.21.42-31.85l-22.67-39.48-14.39.12.12 110.63zm-251.03-.08h14l.15-110.74-14.38.08a57 57 0 0 0-3.78 6.44c-6.13 11-12.84 22.06-18.93 33-6.44 11.64-6.21 20.13.42 31.73z"/><path d="M551.57 375.11c-10.12 1.21-7.8 13.75 2 12.61 3.69-.42 6.78-3.44 6.24-7.19-.48-3.21-4-5.93-8.19-5.41z" fill-rule="evenodd" fill="#fff"/><path class="cls-7" d="M551.74 376.14c-8 .91-6.43 11.5 1.59 10.53a5.41 5.41 0 0 0 5-6 5.7 5.7 0 0 0-6.55-4.52zm-2.15 9h1.28v-3.16h1.45l1.73 2.5c.54.74.14.74 1.84.64-.54-1.09-1.62-2-2.24-3.24 1.5-.22 2.38-.94 2-2.55-.4-1.93-3.54-1.53-6.12-1.53z"/><path class="cls-7" d="M550.87 380.27v.69c1.3 0 3.12.22 3.46-.74.57-1.56-1.11-1.56-2.44-1.56h-1z"/><path d="M195.36 566.19a1376.66 1376.66 0 0 0-144.42 12.16c-3.27 3.11 4.45 1.9 4 5.21-3.57.94-8.09 1.05-11 2.61-.31 4.32 8.28.89 8 5.21-3.69 1.71-10.61.59-11 5.21 23.11-.64 45.7-5.77 69.72-8.69 28.63-3.48 72.72-7.58 91.75-7.48 6.49-.34 14.45-.38 17.81-.34s2.58 1.34 1 1.74c-58.5 2.26-116.12 5.29-162.35 18.24 6.42 3.63 16.44-2.46 25.9-1.74-2.32 2.9-9.52 1.55-10 6.08 54.52-9.54 113.23-15.4 177.37-16.49h54.78c6.31 0 27.2.31 30.88.87 72.74 1.13 137.24 9.45 202.2 17.37 2.23-2.31-1.49-4.42 1-6.08 3.69.61 4.27-1.48 8-.87 1.53-4-6.17-4.4-3-6.95 1.88-.39 6 1.18 5-1.74-65.51-13.23-181.84-20.86-216.14-22.59s-113.93-3.18-139.5-1.73z" fill="#be2e2f" fill-rule="evenodd"/><path d="M100.84 543.64a32.07 32.07 0 0 1-11.86 2c-12.27 0-20.14-7.38-17.62-21 2.4-13 13.27-21.76 26.77-21.76 5.43 0 8.64 1.1 10 1.84L106 509.1a19.14 19.14 0 0 0-8.46-1.72c-10.2 0-18.14 6.21-20.15 17.09-1.88 10.14 3 16.66 13.64 16.66a26 26 0 0 0 9.49-1.72zm35.02-18.07h-16.93l-2.77 14.94H135l-.83 4.49h-24.45l7.68-41.43h23.5l-.83 4.49h-17.89l-2.43 13.09h16.92zm7.72 19.43l7.68-41.43h6.14l10.07 21a93.18 93.18 0 0 1 5.3 13.43l.14-.06c.51-5.53 1.31-10.57 2.51-17l3.21-17.33h5.3L176.25 545h-5.68l-9.93-21a104.19 104.19 0 0 1-5.57-13.83l-.21.06c-.65 5.22-1.44 10.2-2.71 17.09L148.87 545zm57.6-36.88h-13.24l.84-4.55H221l-.84 4.55h-13.3L200 545h-5.68zm23.93-4.55h11.82c6 0 9.46.74 11.74 3.07 1.86 1.84 2.56 4.67 2 7.87-1 5.47-5.3 9.1-10.16 10.57v.18c3.15 1.11 4.61 4.06 4.84 8.36.35 5.78.64 9.77 1.25 11.37h-5.81c-.49-1.17-.8-4.73-1.07-9.9-.23-5.72-2.16-7.87-7.23-8.05h-5.3L223.8 545h-5.62zm2.77 19.43h5.75c6 0 10.4-3.13 11.27-7.87 1-5.35-2.64-7.68-8.58-7.75a25.42 25.42 0 0 0-5.65.49zm67.12.85c-2.64 14.26-13.15 21.82-24.26 21.82-11.5 0-18-8.48-15.67-21 2.44-13.15 12.62-21.76 24.25-21.76 11.9-.02 17.98 8.65 15.68 20.94zm-33.9.68c-1.64 8.85 1.93 16.78 10.78 16.78s15.4-7.81 17.14-17.21c1.53-8.24-1.4-16.84-10.76-16.84s-15.45 8.17-17.14 17.27zm78.67 2.27c.75-5.78 1.65-12.72 2.67-17.89h-.19c-2.39 4.86-5.15 10-8.41 15.74l-11.41 20.1h-4.26L314.78 525a160.61 160.61 0 0 1-2.05-16.1h-.13c-1.09 5.16-2.7 12.11-4.23 18.32L303.91 545h-5.36l10.71-41.43h7.17l3.71 20c.86 5.1 1.51 9.65 1.81 14h.19c1.87-4.18 4.27-8.73 7.17-14l11.46-20h7.17L343 545h-5.49zm54.03-2.95c-2.64 14.26-13.15 21.82-24.26 21.82-11.5 0-18-8.48-15.67-21 2.44-13.15 12.62-21.76 24.25-21.76 11.88-.02 17.96 8.65 15.68 20.94zm-33.9.68c-1.64 8.85 1.93 16.78 10.78 16.78s15.4-7.81 17.14-17.21c1.53-8.24-1.4-16.84-10.76-16.84s-15.48 8.17-17.16 17.27zm54.41-16.41h-13.24l.84-4.55h32.23l-.84 4.55H420L413.16 545h-5.68zm60.24 15.73c-2.64 14.26-13.15 21.82-24.26 21.82-11.5 0-18-8.48-15.67-21 2.44-13.15 12.62-21.76 24.25-21.76 11.88-.02 17.96 8.65 15.68 20.94zm-33.9.68c-1.64 8.85 1.93 16.78 10.78 16.78s15.4-7.81 17.14-17.21c1.53-8.24-1.4-16.84-10.76-16.84s-15.48 8.17-17.17 17.27zm45.85-20.41a64.19 64.19 0 0 1 10.95-.86c6 0 9.69 1 12 3.38 1.85 1.84 2.56 4.67 2 7.87-1 5.47-5.3 9.1-10.16 10.57v.18c3.15 1.11 4.61 4.06 4.84 8.36.35 5.78.64 9.77 1.25 11.37h-5.81c-.49-1.17-.8-4.73-1.07-9.9-.23-5.72-2.16-7.87-7.23-8.05h-5.3L484.54 545h-5.62zm2.12 18.88h5.75c6 0 10.4-3.13 11.27-7.87 1-5.35-2.64-7.68-8.58-7.75a25.42 25.42 0 0 0-5.65.49z" stroke="#124c91" stroke-miterlimit="10" stroke-width="7" fill="#124c91"/><path class="cls-2" d="M137.29 622.2a10.55 10.55 0 0 0 5.34 1.51c3 0 4.83-1.61 4.83-3.94 0-2.16-1.23-3.39-4.35-4.59-3.76-1.33-6.09-3.29-6.09-6.54 0-3.59 3-6.26 7.46-6.26a10.49 10.49 0 0 1 5.1 1.13l-.82 2.43a9.18 9.18 0 0 0-4.38-1.1c-3.15 0-4.35 1.88-4.35 3.46 0 2.16 1.4 3.22 4.59 4.45 3.9 1.51 5.89 3.39 5.89 6.78 0 3.56-2.64 6.64-8.08 6.64a11.91 11.91 0 0 1-5.89-1.47zm31.04-.89c0 1.71 0 3.22.14 4.52h-2.67l-.17-2.7h-.07a6.23 6.23 0 0 1-5.48 3.08c-2.6 0-5.72-1.44-5.72-7.26v-9.69h3v9.17c0 3.15 1 5.27 3.7 5.27a4.35 4.35 0 0 0 4-2.74 4.41 4.41 0 0 0 .27-1.54v-10.15h3zm24.07 3.9a11.09 11.09 0 0 1-4.76 1c-5 0-8.25-3.39-8.25-8.45s3.49-8.8 8.9-8.8a10.06 10.06 0 0 1 4.18.86l-.68 2.33a7 7 0 0 0-3.49-.79c-3.8 0-5.85 2.81-5.85 6.26 0 3.83 2.46 6.19 5.75 6.19a8.55 8.55 0 0 0 3.7-.82zm4.99-7.11c.07 4.07 2.67 5.75 5.68 5.75a10.89 10.89 0 0 0 4.59-.86l.51 2.16a13.41 13.41 0 0 1-5.51 1c-5.1 0-8.15-3.35-8.15-8.35s2.94-8.93 7.77-8.93c5.41 0 6.85 4.76 6.85 7.8a11.35 11.35 0 0 1-.1 1.4zm8.83-2.16c0-1.92-.79-4.89-4.18-4.89-3 0-4.38 2.81-4.62 4.89zm6.65-2.19c0-1.71 0-3.11-.14-4.48h2.67l.17 2.74h.07a6.09 6.09 0 0 1 5.48-3.11c2.29 0 5.85 1.37 5.85 7v9.89h-3v-9.55c0-2.67-1-4.89-3.83-4.89a4.28 4.28 0 0 0-4 3.08 4.33 4.33 0 0 0-.21 1.4v10h-3zm22.48-9.24v4.76h4.31v2.29h-4.31v8.93c0 2.05.58 3.22 2.26 3.22a6.71 6.71 0 0 0 1.75-.21l.14 2.26a7.38 7.38 0 0 1-2.67.41 4.17 4.17 0 0 1-3.25-1.27c-.86-.89-1.16-2.36-1.16-4.31v-9h-2.57v-2.29h2.57v-4zm7.71 9.92c0-2 0-3.63-.14-5.17h2.64l.1 3.25h.14a5 5 0 0 1 4.59-3.63 3.26 3.26 0 0 1 .86.1v2.84a4.53 4.53 0 0 0-1-.1c-2.12 0-3.63 1.61-4 3.87A8.49 8.49 0 0 0 246 617v8.83h-3zm25.84 2.98c0 6.13-4.24 8.8-8.25 8.8-4.48 0-7.94-3.29-7.94-8.52 0-5.54 3.63-8.8 8.21-8.8 4.76 0 7.98 3.46 7.98 8.52zm-13.14.17c0 3.63 2.09 6.37 5 6.37s5-2.7 5-6.43c0-2.81-1.4-6.37-5-6.37s-5.01 3.28-5.01 6.43zm38.5-16.05v20c0 1.47 0 3.15.14 4.28h-2.7l-.14-2.87h-.07a6.13 6.13 0 0 1-5.65 3.25c-4 0-7.08-3.39-7.08-8.42 0-5.51 3.39-8.9 7.43-8.9a5.54 5.54 0 0 1 5 2.53h.07v-9.89zm-3 14.48a5.32 5.32 0 0 0-.14-1.27 4.43 4.43 0 0 0-4.35-3.49c-3.11 0-5 2.74-5 6.4 0 3.35 1.64 6.13 4.89 6.13a4.53 4.53 0 0 0 4.42-3.59 5.24 5.24 0 0 0 .14-1.3zm9.68 2.09c.07 4.07 2.67 5.75 5.68 5.75a10.89 10.89 0 0 0 4.59-.86l.51 2.16a13.41 13.41 0 0 1-5.51 1c-5.1 0-8.15-3.35-8.15-8.35s2.94-8.93 7.77-8.93c5.41 0 6.85 4.76 6.85 7.8a11.37 11.37 0 0 1-.1 1.4zm8.83-2.16c0-1.92-.79-4.89-4.18-4.89-3 0-4.38 2.81-4.62 4.89zm13.48 6.81a7.89 7.89 0 0 0 4 1.2c2.19 0 3.22-1.09 3.22-2.46s-.86-2.22-3.08-3c-3-1.06-4.38-2.7-4.38-4.69 0-2.67 2.16-4.86 5.72-4.86a8.26 8.26 0 0 1 4.07 1l-.75 2.19a6.45 6.45 0 0 0-3.39-1c-1.78 0-2.77 1-2.77 2.26s1 2 3.15 2.81c2.88 1.09 4.35 2.53 4.35 5 0 2.91-2.26 5-6.2 5a9.44 9.44 0 0 1-4.69-1.2zm15.65-4.65c.07 4.07 2.67 5.75 5.68 5.75a10.89 10.89 0 0 0 4.59-.86l.51 2.16a13.41 13.41 0 0 1-5.51 1c-5.1 0-8.15-3.35-8.15-8.35s2.94-8.93 7.77-8.93c5.41 0 6.85 4.76 6.85 7.8a11.37 11.37 0 0 1-.1 1.4zm8.83-2.16c0-1.92-.79-4.89-4.18-4.89-3 0-4.38 2.81-4.62 4.89zm6.64-1.51c0-2 0-3.63-.14-5.17h2.64l.1 3.25h.14a5 5 0 0 1 4.59-3.63 3.27 3.27 0 0 1 .86.1v2.84a4.54 4.54 0 0 0-1-.1c-2.12 0-3.63 1.61-4 3.87a8.48 8.48 0 0 0-.14 1.4v8.83h-3zm13.21-5.16l3.25 9.31a42.41 42.41 0 0 1 1.33 4.24h.1c.38-1.37.86-2.74 1.4-4.24l3.22-9.31H380l-6.5 16.57h-2.87l-6.3-16.57zm18.66-4.66a1.87 1.87 0 0 1-3.73 0 1.84 1.84 0 0 1 1.88-1.88 1.79 1.79 0 0 1 1.85 1.88zm-3.35 21.22v-16.56h3v16.57zm19.81-.62a11.09 11.09 0 0 1-4.76 1c-5 0-8.25-3.39-8.25-8.45s3.49-8.8 8.9-8.8a10.06 10.06 0 0 1 4.18.86l-.68 2.33a7 7 0 0 0-3.49-.79c-3.8 0-5.85 2.81-5.85 6.26 0 3.83 2.46 6.19 5.75 6.19a8.55 8.55 0 0 0 3.7-.82zm6.88-20.6a1.87 1.87 0 0 1-3.73 0 1.84 1.84 0 0 1 1.88-1.88 1.79 1.79 0 0 1 1.85 1.88zm-3.35 21.22v-16.56h3v16.57zm23-8.42c0 6.13-4.24 8.8-8.25 8.8-4.48 0-7.94-3.29-7.94-8.52 0-5.54 3.63-8.8 8.21-8.8 4.75 0 7.98 3.46 7.98 8.52zm-13.14.17c0 3.63 2.09 6.37 5 6.37s5-2.7 5-6.43c0-2.81-1.4-6.37-5-6.37s-5.01 3.28-5.01 6.43zm16.53 5.17a7.89 7.89 0 0 0 4 1.2c2.19 0 3.22-1.09 3.22-2.46s-.86-2.22-3.08-3c-3-1.06-4.38-2.7-4.38-4.69 0-2.67 2.16-4.86 5.72-4.86a8.26 8.26 0 0 1 4.07 1l-.75 2.19a6.45 6.45 0 0 0-3.39-1c-1.78 0-2.77 1-2.77 2.26s1 2 3.15 2.81c2.88 1.09 4.35 2.53 4.35 5 0 2.91-2.26 5-6.2 5a9.44 9.44 0 0 1-4.65-1.13z"/><path d="M552.67 574.72c0 3.68-3.22 6.57-7.41 6.57s-7.46-2.89-7.46-6.57 3.31-6.49 7.46-6.49 7.41 2.89 7.41 6.49zm-13 0a5.33 5.33 0 0 0 5.65 5.19 5.2 5.2 0 1 0 0-10.37 5.34 5.34 0 0 0-5.66 5.18zm4.46 3.41h-1.68v-6.49a16.36 16.36 0 0 1 2.78-.2 4.93 4.93 0 0 1 2.51.47 1.73 1.73 0 0 1 .71 1.43c0 .71-.62 1.27-1.5 1.5v.08a2 2 0 0 1 1.32 1.58 4.6 4.6 0 0 0 .53 1.62H547a5.15 5.15 0 0 1-.57-1.58c-.13-.71-.57-1-1.5-1h-.79zm0-3.68h.87c.93 0 1.68-.28 1.68-1s-.48-1-1.54-1a4.4 4.4 0 0 0-.93.08z" fill="#114888"/></svg>